#!OML:ASF F:\VICON\USERDATA\INSTALL\rory3\rory3.ASF
:FULLY-SPECIFIED
:DEGREES
887
root -6.09265 15.7479 -7.42664 27.7076 -74.0553 -368.573
lowerback -0.66277 2.67266 2.72966
upperback -5.38989 3.51618 -1.28582
thorax -4.9573 1.56865 -2.97686
lowerneck -20.3293 3.05668 -0.550778
upperneck 16.1723 5.58255 -6.21974
head 8.57341 1.89057 -1.2843
rclavicle 3.27995e-015 7.95139e-015
rhumerus -46.8938 -9.42678 -73.6564
rradius 17.7703
rwrist -15.6836
rhand 0.171378 10.0785
rfingers 7.12502
rthumb 25.7545 -18.1985
lclavicle 3.27995e-015 7.95139e-015
lhumerus -26.7995 16.2334 66.9657
lradius 19.4009
lwrist 0.387444
lhand -7.36908 24.9187
lfingers 7.12502
lthumb 18.5158 54.0575
rfemur 124.543 -162.144 -167.125
rtibia 50.3027
rfoot 134.995 -213.721
rtoes 55.4651
lfemur -40.3914 12.6443 -26.4292
ltibia 56.0063
lfoot 139.12 -169.03
ltoes 0.328638
888
root -6.10248 15.7857 -7.40884 28.8353 -73.5494 -369.504
lowerback -0.749028 2.70551 2.79337
upperback -5.4913 3.56302 -1.16062
thorax -5.01592 1.58875 -2.88284
lowerneck -20.4866 2.9085 -0.63061
upperneck 17.1176 5.43938 -6.07143
head 8.91306 1.79888 -1.24022
rclavicle 4.25648e-014 -2.68359e-014
rhumerus -47.0464 -10.7316 -72.7687
rradius 16.1646
rwrist -13.105
rhand 1.42692 10.3408
rfingers 7.12502
rthumb 26.9564 -17.7563
lclavicle 4.25648e-014 -2.68359e-014
lhumerus -27.118 16.5608 66.8012
lradius 19.5248
lwrist 1.57867
lhand -7.38497 25.4155
lfingers 7.12502
lthumb 18.5005 54.5557
rfemur 123.814 -161.493 -165.538
rtibia 50.655
rfoot 142.804 -217.077
rtoes 51.4675
lfemur -40.3336 11.9859 -25.9399
ltibia 55.5747
lfoot 139.062 -168.892
ltoes 0.326572
889
root -6.11119 15.8198 -7.39633 28.1442 -73.0583 -368.655
lowerback -0.751348 2.55027 2.37722
upperback -5.49603 3.34817 -1.09135
thorax -5.05973 1.50101 -2.57321
lowerneck -20.8273 2.83156 -1.04985
upperneck 18.1897 5.45018 -5.66061
head 9.32045 1.77714 -1.02814
rclavicle -2.76062e-014 -1.27222e-014
rhumerus -47.0408 -11.2667 -72.3987
rradius 14.9191
rwrist -11.2587
rhand 2.80333 10.4009
rfingers 7.12502
rthumb 28.2726 -17.4856
lclavicle -2.76062e-014 -1.27222e-014
lhumerus -27.4361 17.3201 66.5949
lradius 19.5904
lwrist 2.63247
lhand -7.69044 25.995
lfingers 7.12502
lthumb 18.2067 55.1629
rfemur 123.307 -161.228 -164.953
rtibia 50.9413
rfoot 143.744 -215.247
rtoes 52.0109
lfemur -40.1084 11.3633 -26.0086
ltibia 55.0598
lfoot 139.211 -168.577
ltoes -1.93808
890
root -6.12005 15.854 -7.38105 29.8123 -72.3806 -370.337
lowerback -0.664648 2.49926 2.73035
upperback -5.45346 3.30388 -0.807506
thorax -5.065 1.47112 -2.47792
lowerneck -21.0288 2.87533 -1.26113
upperneck 19.2031 5.62288 -5.56061
head 9.70892 1.81107 -0.93393
rclavicle -7.3774e-014 -1.64991e-014
rhumerus -47.0005 -11.9191 -72.0571
rradius 13.8471
rwrist -9.80826
rhand 3.7565 10.137
rfingers 7.12502
rthumb 29.1832 -17.5951
lclavicle -7.3774e-014 -1.64991e-014
lhumerus -27.6457 17.943 66.5181
lradius 19.6203
lwrist 3.50049
lhand -7.6582 26.2483
lfingers 7.12502
lthumb 18.2377 55.4133
rfemur 123.026 -161.774 -163.862
rtibia 51.1379
rfoot 145.808 -214.374
rtoes 51.2998
lfemur -39.9254 10.7036 -25.2623
ltibia 54.5953
lfoot 139.386 -167.707
ltoes -5.07971
891
root -6.12899 15.8897 -7.36054 32.0092 -71.5764 -372.624
lowerback -0.522528 2.55087 3.43271
upperback -5.45696 3.409 -0.494103
thorax -5.12539 1.4982 -2.55513
lowerneck -21.1921 2.82532 -1.14078
upperneck 20.3019 5.64251 -5.78611
head 10.1439 1.75534 -1.03125
rclavicle -6.50274e-014 -3.37934e-014
rhumerus -47.2231 -13.1229 -71.2291
rradius 12.845
rwrist -7.90419
rhand 4.54916 9.72765
rfingers 7.12502
rthumb 29.9399 -17.8705
lclavicle -6.50274e-014 -3.37934e-014
lhumerus -27.7416 18.2242 66.6
lradius 19.49
lwrist 4.14854
lhand -7.51559 26.3248
lfingers 7.12502
lthumb 18.3749 55.4769
rfemur 122.89 -162.349 -162.504
rtibia 51.2071
rfoot 147.883 -213.337
rtoes 50.3148
lfemur -39.7054 9.77751 -24.1494
ltibia 54.1324
lfoot 139.356 -166.83
ltoes -6.26822
892
root -6.1575 15.9255 -7.32365 31.9492 -71.0581 -372.613
lowerback -0.688912 2.50738 3.43821
upperback -5.37712 3.34942 -0.350264
thorax -4.95848 1.47702 -2.39671
lowerneck -21.3913 2.78463 -1.12684
upperneck 21.552 5.68516 -5.8649
head 10.6404 1.7116 -1.05916
rclavicle 1.063e-013 1.78906e-014
rhumerus -47.6147 -14.6389 -69.9399
rradius 11.9876
rwrist -5.36695
rhand 5.49612 9.52403
rfingers 7.12502
rthumb 30.8431 -17.9072
lclavicle 1.063e-013 1.78906e-014
lhumerus -28.0306 18.3462 66.9022
lradius 19.4211
lwrist 4.47769
lhand -8.03734 26.1827
lfingers 7.12502
lthumb 17.8729 55.3814
rfemur 122.883 -162.527 -162.003
rtibia 51.2533
rfoot 150.266 -212.191
rtoes 48.3195
lfemur -39.1422 8.98268 -23.9479
ltibia 53.5683
lfoot 139.317 -166.014
ltoes -7.2855
893
root -6.18588 15.9545 -7.29238 31.8169 -70.6118 -372.433
lowerback -0.968918 2.42808 3.25421
upperback -5.23694 3.2314 -0.246997
thorax -4.67405 1.4374 -2.16673
lowerneck -22.0387 2.7836 -0.85344
upperneck 22.9878 5.7458 -6.01184
head 11.3127 1.67334 -1.15183
rclavicle -3.65764e-014 2.3059e-014
rhumerus -47.8418 -16.0927 -68.8795
rradius 11.2934
rwrist -3.70756
rhand 6.84413 9.09614
rfingers 7.12502
rthumb 32.1273 -18.0842
lclavicle -3.65764e-014 2.3059e-014
lhumerus -28.1725 18.8176 67.0903
lradius 19.0729
lwrist 3.84575
lhand -8.74433 25.6501
lfingers 7.12502
lthumb 17.1925 54.9095
rfemur 122.78 -162.952 -161.666
rtibia 51.2821
rfoot 152.253 -210.95
rtoes 45.6004
lfemur -38.6723 8.25417 -23.8452
ltibia 52.9615
lfoot 139.381 -165.209
ltoes -8.29615
894
root -6.20518 15.983 -7.28233 31.1964 -70.1555 -371.775
lowerback -0.927777 2.38438 2.68371
upperback -5.15823 3.16919 -0.146196
thorax -4.6518 1.43532 -1.7436
lowerneck -22.4322 2.68724 -0.609014
upperneck 24.3155 5.68064 -6.22939
head 11.9109 1.57566 -1.29402
rclavicle -1.85615e-014 -1.09332e-014
rhumerus -48.444 -18.8601 -66.4145
rradius 10.2965
rwrist -0.540675
rhand 8.6556 8.90273
rfingers 7.12502
rthumb 33.8501 -17.9142
lclavicle -1.85615e-014 -1.09332e-014
lhumerus -28.1724 19.019 67.3374
lradius 18.7019
lwrist 3.24294
lhand -8.80394 24.983
lfingers 7.12502
lthumb 17.1352 54.2474
rfemur 122.71 -163.839 -161.723
rtibia 51.3189
rfoot 152.889 -209.622
rtoes 44.0271
lfemur -38.2434 7.3457 -23.7486
ltibia 52.2991
lfoot 139.317 -164.948
ltoes -8.12632
895
root -6.2287 16.0155 -7.27276 30.3849 -69.7694 -370.979
lowerback -0.853833 2.40825 2.06905
upperback -5.08146 3.19739 -0.0534583
thorax -4.64825 1.47932 -1.3084
lowerneck -22.4234 2.47845 -0.880605
upperneck 25.46 5.50567 -6.08953
head 12.3394 1.44278 -1.24048
rclavicle -8.69683e-016 9.54166e-015
rhumerus -48.5482 -19.5566 -66.1902
rradius 9.45083
rwrist 0.0294555
rhand 9.33406 8.69132
rfingers 7.12502
rthumb 34.4944 -17.9813
lclavicle -8.69683e-016 9.54166e-015
lhumerus -28.1427 19.2516 67.7141
lradius 18.5734
lwrist 2.88817
lhand -8.65052 25.042
lfingers 7.12502
lthumb 17.2828 54.2935
rfemur 122.735 -164.72 -161.912
rtibia 51.2843
rfoot 153.047 -208.028
rtoes 43.785
lfemur -37.7104 6.57678 -23.7467
ltibia 51.65
lfoot 139.272 -164.756
ltoes -8.01886
896
root -6.2557 16.0452 -7.25768 30.2187 -69.2351 -370.846
lowerback -0.882515 2.28547 1.88696
upperback -4.9495 3.03432 0.06433
thorax -4.51467 1.41204 -1.07657
lowerneck -22.678 2.42585 -1.02462
upperneck 26.7759 5.5054 -5.88489
head 12.9076 1.396 -1.15458
rclavicle 1.45858e-014 2.76311e-014
rhumerus -48.2717 -19.9877 -66.3624
rradius 8.42751
rwrist 0.550359
rhand 9.42837 8.50567
rfingers 7.12502
rthumb 34.584 -18.1465
lclavicle 1.45858e-014 2.76311e-014
lhumerus -28.2151 19.7161 67.9012
lradius 18.701
lwrist 2.746
lhand -8.39898 25.3737
lfingers 7.12502
lthumb 17.5249 54.6038
rfemur 122.675 -165.378 -161.623
rtibia 51.085
rfoot 155.279 -207.672
rtoes 40.4363
lfemur -37.2436 5.84214 -23.5107
ltibia 51.1119
lfoot 139.482 -163.797
ltoes -9.46436
